<?xml version="1.0" encoding="utf-8"?>
<!-- Generator: Adobe Illustrator 19.0.0, SVG Export Plug-In . SVG Version: 6.00 Build 0)  -->
<svg version="1.1" id="Layer_1" xmlns="http://www.w3.org/2000/svg" xmlns:xlink="http://www.w3.org/1999/xlink" x="0px" y="0px"
	 viewBox="-228 66 503 429" enable-background="new -228 66 503 429" xml:space="preserve">
<g id="Layer_2" display="none">
	
		<image display="inline" overflow="visible" enable-background="new    " width="1000" height="800" xlink:href="Reference/Jays/100406-15.36-6694-Edit.jpg"  transform="matrix(0.5412 0 0 0.5412 37.5645 33.3884)">
	</image>
</g>
<g id="Layer_1_1_">
	<g>
		<polyline fill="#B9B5B1" points="-219.436,468.972 -129.36,341.769 -116.138,455.155 -219.436,468.972 		"/>
		<polyline fill="#7E818D" points="-129.36,341.769 -169.775,355.864 -219.436,468.972 		"/>
		<polyline fill="#62636D" points="-219.436,468.972 -195.313,362.821 -169.775,355.864 		"/>
		<polyline fill="#C2C2BA" points="-116.138,455.155 -10.756,490.182 -129.36,341.769 		"/>
		<path fill="#DBD7D0" d="M-10.756,490.182c0,0,56.162-35.94,56.183-35.952l83.526,5.742L-10.756,490.182"/>
		<polyline fill="#767474" points="128.953,459.972 163.879,477.975 135.128,413.146 128.953,459.972 		"/>
		<polyline fill="#8D8B94" points="135.128,413.146 98.232,424.31 128.953,459.972 		"/>
		<polyline fill="#CDC9C4" points="45.427,454.23 98.232,424.31 128.953,459.972 		"/>
		<polyline fill="#777985" points="-129.36,341.769 -17.533,411.892 -10.756,490.182 		"/>
		<polyline fill="#B7B1AC" points="-10.756,490.182 -17.533,411.892 45.427,454.23 		"/>
		<polyline fill="#645E5E" points="-17.533,411.892 98.232,424.31 45.427,454.23 		"/>
		<polyline fill="#050004" points="-17.533,411.892 24.448,378.118 98.232,424.31 		"/>
		<polyline fill="#4C4B56" points="-17.533,411.892 -35.397,378.37 -129.36,341.769 		"/>
		<polyline fill="#2A2329" points="-35.397,378.37 24.448,378.118 -17.533,411.892 		"/>
		<polyline fill="#999FAF" points="-169.775,355.864 -128,302.957 -129.36,341.769 		"/>
		<polyline fill="#83878B" points="-128,302.957 -110.669,289.576 -101.375,302.197 		"/>
		<polyline fill="#9E9D9D" points="-128,302.957 -101.375,302.197 -129.36,341.769 		"/>
		<polyline fill="#B8B4B0" points="-101.375,302.197 -67.129,321.873 -129.36,341.769 		"/>
		<polyline fill="#B5AFB1" points="-110.669,289.576 -101.375,302.197 -56.899,278.864 		"/>
		<polyline fill="#A6AAB7" points="-110.669,289.576 -83.982,260.505 -56.899,278.864 		"/>
		<polyline fill="#6C7D9F" points="-83.982,260.505 -103.711,239.224 -110.669,289.576 		"/>
		<polyline fill="#7B92B6" points="-103.711,239.224 -132.566,274.654 -110.669,289.576 		"/>
		<polyline fill="#839ABD" points="-132.566,274.654 -144.488,248.312 -103.711,239.224 		"/>
		<polyline fill="#85A3CE" points="-103.711,239.224 -41.841,182.688 -83.982,260.505 		"/>
		<polyline fill="#9CA5B8" points="-41.841,182.688 -17.068,246.174 -83.982,260.505 		"/>
		<polyline fill="#C3BFBE" points="98.232,424.31 125.626,396.196 135.128,413.146 		"/>
		<polyline fill="#3E3532" points="135.128,413.146 125.626,396.196 140.682,378.677 		"/>
		<polyline fill="#4C443E" points="140.682,378.677 135.128,413.146 149.72,391.049 140.682,378.677 		"/>
		<polyline fill="#403330" points="140.682,378.677 183.846,381.117 149.72,391.049 		"/>
		<polyline fill="#55504C" points="140.682,378.677 152.957,352.489 183.846,381.117 		"/>
		<polyline fill="#BCBFC0" points="125.626,396.196 114.844,357.901 152.957,352.489 		"/>
		<polyline fill="#8A8A8F" points="125.626,396.196 114.844,357.901 98.232,424.31 		"/>
		<polyline fill="#ACAAA9" points="98.232,424.31 77.903,357.984 114.844,357.901 		"/>
		<polyline fill="#B8B7B1" points="77.903,357.984 124.525,338.515 152.957,352.489 		"/>
		<polyline fill="#C8C8C8" points="77.903,357.984 32.298,373.591 98.232,424.31 		"/>
		<polyline fill="#97A5B7" points="24.448,378.118 32.298,373.591 98.232,424.31 		"/>
		<polyline fill="#DADFD9" points="32.298,373.591 25.729,359.164 77.903,357.984 		"/>
		<polyline fill="#B1B1AF" points="77.903,357.984 79.914,333.112 25.729,359.164 		"/>
		<polyline fill="#E1DFDC" points="25.729,359.164 45.307,324.233 79.914,333.112 		"/>
		<polyline fill="#D2D1D0" points="79.914,333.112 83.027,313.526 45.307,324.233 		"/>
		<polyline fill="#BFBBB7" points="45.307,324.233 71.976,300.871 83.027,313.526 		"/>
		<polyline fill="#D7D4CA" points="83.027,313.526 89.606,265.832 71.976,300.871 		"/>
		<polyline fill="#D1CDCC" points="71.976,300.871 49.801,279.966 89.606,265.832 		"/>
		<polyline fill="#E1E0DB" points="89.606,265.832 21.737,227.939 49.801,279.966 		"/>
		<polyline fill="#9A99A4" points="49.801,279.966 19.948,279.733 71.976,300.871 		"/>
		<polyline fill="#E2E2E0" points="71.976,300.871 19.948,279.733 45.307,324.233 		"/>
		<polyline fill="#CECBC8" points="45.307,324.233 -19.675,295.889 19.948,279.733 		"/>
		<polyline fill="#B1B1BF" points="-19.675,295.889 0.916,322.845 45.307,324.233 		"/>
		<polyline fill="#C5C3C3" points="45.307,324.233 0.916,322.845 10.62,337.068 		"/>
		<polyline fill="#D7D5D1" points="10.321,352.463 10.62,337.068 45.307,324.233 		"/>
		<polyline fill="#CCCAC9" points="45.307,324.233 10.321,352.463 25.729,359.164 		"/>
		<polyline fill="#A4ABAF" points="10.321,352.463 0.565,362.825 25.729,359.164 		"/>
		<polyline fill="#4E5A78" points="25.729,359.164 13.481,370.858 32.298,373.591 		"/>
		<polyline fill="#0F1344" points="24.448,378.118 13.481,370.858 32.298,373.591 		"/>
		<polyline fill="#161117" points="24.448,378.118 13.481,370.858 -35.397,378.37 		"/>
		<polyline fill="#252129" points="13.481,370.858 0.565,362.825 -35.397,378.37 		"/>
		<polyline fill="#060411" points="0.565,362.825 -14.604,353.472 -35.397,378.37 		"/>
		<polyline fill="#0F0D2B" points="0.565,362.825 -14.604,353.472 10.321,352.463 		"/>
		<polyline fill="#5B6273" points="10.321,352.463 -14.604,353.472 10.62,337.068 		"/>
		<polyline fill="#9195A1" points="10.62,337.068 -39.651,340.07 0.916,322.845 		"/>
		<polyline fill="#1E161B" points="-14.604,353.472 -39.651,340.07 -35.397,378.37 		"/>
		<polyline fill="#29242B" points="-67.129,321.873 -35.397,378.37 -39.651,340.07 -67.129,321.873 		"/>
		<polyline fill="#261D25" points="-67.129,321.873 -39.651,340.07 0.916,322.845 		"/>
		<polyline fill="#646475" points="0.916,322.845 -35.594,323.265 -19.675,295.889 		"/>
		<polyline fill="#12080D" points="-19.675,295.889 -67.129,321.873 -35.594,323.265 		"/>
		<polyline fill="#322C30" points="-19.675,295.889 -17.068,246.174 19.948,279.733 		"/>
		<polyline fill="#4B464D" points="19.948,279.733 13.249,255.279 -17.068,246.174 		"/>
		<polyline fill="#2C2327" points="-17.068,246.174 -67.129,321.873 -19.675,295.889 		"/>
		<polyline fill="#A8A5A8" points="-56.899,278.864 -67.129,321.873 -17.068,246.174 		"/>
		<polyline fill="#D8D8D7" points="49.801,279.966 21.737,227.939 13.249,255.279 		"/>
		<path fill="#3D383A" d="M13.249,255.279c-0.386-0.366,8.487-27.34,8.487-27.34l-38.805,18.235"/>
		<polyline fill="#464145" points="-17.068,246.174 31.432,203.814 21.737,227.939 		"/>
		<polyline fill="#757F8E" points="31.432,203.814 59.646,207.164 21.737,227.939 		"/>
		<polyline fill="#FCFBF8" points="59.646,207.164 90.913,247.068 21.737,227.939 		"/>
		<polyline fill="#CFD0CA" points="21.737,227.939 90.913,247.068 89.606,265.832 		"/>
		<polyline fill="#6C7C9E" points="-17.068,246.174 -10.19,191.751 -41.841,182.688 		"/>
		<polyline fill="#88A6CF" points="-41.841,182.688 -26.737,179.259 -10.19,191.751 		"/>
		<polyline fill="#617CA8" points="-10.19,191.751 4.547,161.137 -26.737,179.259 		"/>
		<polyline fill="#211C20" points="-10.19,191.751 31.432,203.814 -17.068,246.174 		"/>
		<polyline fill="#262229" points="-10.19,191.751 31.432,203.814 4.547,161.137 		"/>
		<polyline fill="#33313A" points="4.547,161.137 29.361,159.375 31.432,203.814 		"/>
		<polyline fill="#262027" points="31.432,203.814 59.646,207.164 29.361,159.375 		"/>
		<polyline fill="#3A353A" points="59.646,207.164 57.299,187.206 29.361,159.375 		"/>
		<polyline fill="#BEC7CF" points="57.299,187.206 78.007,196.463 59.646,207.164 		"/>
		<polyline fill="#A9A8A8" points="59.646,207.164 89.169,231.037 78.007,196.463 		"/>
		<polyline fill="#B7BEC9" points="78.007,196.463 96.916,191.542 89.169,231.037 		"/>
		<polyline fill="#9E9EA6" points="89.169,231.037 109.989,236.577 96.916,191.542 		"/>
		<polyline fill="#7F8290" points="96.916,191.542 113.819,211.576 109.989,236.577 		"/>
		<polyline fill="#A2A2A6" points="109.989,236.577 113.819,211.576 117.723,243.379 		"/>
		<path fill="#FAFBF9" d="M113.819,211.576c0-0.547,13.987-57.839,13.987-57.839l-10.083,89.642"/>
		<polyline fill="#C9D3DD" points="127.806,153.737 101.56,140.707 113.819,211.576 		"/>
		<polyline fill="#F5F9FA" points="113.819,211.576 96.916,191.542 101.56,140.707 		"/>
		<polyline fill="#2E3C58" points="101.56,140.707 81.162,123.562 96.916,191.542 		"/>
		<polyline fill="#414A63" points="96.916,191.542 70.231,160.687 81.162,123.562 		"/>
		<polyline fill="#546B8F" points="81.162,123.562 55.339,131.07 70.231,160.687 		"/>
		<polyline fill="#8C9ECA" points="70.231,160.687 64.376,172.199 96.916,191.542 		"/>
		<polyline fill="#E6EBE5" points="96.916,191.542 78.007,196.463 64.376,172.199 		"/>
		<polyline fill="#C8CADD" points="64.376,172.199 57.299,187.206 78.007,196.463 		"/>
		<polyline fill="#2D2A2F" points="64.376,172.199 35.178,141.892 57.299,187.206 		"/>
		<polyline fill="#474952" points="57.299,187.206 35.178,141.892 29.361,159.375 		"/>
		<polyline fill="#38353C" points="29.361,159.375 24.704,131.496 35.178,141.892 		"/>
		<polyline fill="#353239" points="35.178,141.892 41.265,128.988 64.376,172.199 		"/>
		<polyline fill="#444852" points="64.376,172.199 55.339,131.07 41.265,128.988 		"/>
		<polyline fill="#343137" points="55.339,131.07 64.376,172.199 70.231,160.687 		"/>
		<polyline fill="#4E70A1" points="81.162,123.562 90.077,110.156 101.56,140.707 		"/>
		<polyline fill="#466693" points="101.56,140.707 105.18,111.463 90.077,110.156 		"/>
		<polyline fill="#709BD3" points="101.56,140.707 105.18,111.463 127.806,153.737 		"/>
		<polyline fill="#5683BB" points="127.806,153.737 142.827,115.735 105.18,111.463 		"/>
		<polyline fill="#425473" points="142.827,115.735 105.75,100.63 105.18,111.463 		"/>
		<polyline fill="#42608A" points="105.75,100.63 117.297,99.171 142.827,115.735 		"/>
		<polyline fill="#57749F" points="117.297,99.171 124.297,86.355 142.827,115.735 		"/>
		<polyline fill="#677598" points="124.297,86.355 151.2,86.583 142.827,115.735 		"/>
		<polyline fill="#6D97CC" points="142.827,115.735 173.726,169.079 127.806,153.737 		"/>
		<polyline fill="#567FBA" points="151.2,86.583 173.726,169.079 142.827,115.735 		"/>
		<polyline fill="#4E75A8" points="151.2,86.583 185.854,95.634 173.726,169.079 		"/>
		<polyline fill="#4D6A92" points="185.854,95.634 165.928,73.223 151.2,86.583 		"/>
		<polyline fill="#5B77AA" points="185.854,95.634 195.93,95.839 190.976,111.616 		"/>
		<polyline fill="#5E87BE" points="185.854,95.634 190.976,111.616 173.726,169.079 		"/>
		<polyline fill="#5A83B8" points="190.976,111.616 205.096,151.232 173.726,169.079 		"/>
		<polyline fill="#6997D1" points="205.096,151.232 205.927,179.21 173.726,169.079 		"/>
		<polyline fill="#779ED6" points="205.927,179.21 157.28,183.342 173.726,169.079 		"/>
		<polyline fill="#81A3CF" points="157.28,183.342 127.806,153.737 173.726,169.079 		"/>
		<polyline fill="#7897C8" points="127.806,153.737 148.183,200.89 157.28,183.342 		"/>
		<polyline fill="#CCD4DA" points="148.183,200.89 124.818,252.083 127.806,153.737 		"/>
		<polyline fill="#B6BCC9" points="127.806,153.737 117.723,243.379 124.818,252.083 		"/>
		<polyline fill="#A7A9B8" points="124.818,252.083 128.75,271.965 148.183,200.89 		"/>
		<polyline fill="#C7CEDA" points="148.183,200.89 177.403,237.327 157.28,183.342 		"/>
		<polyline fill="#7097CA" points="157.28,183.342 177.403,237.327 205.927,179.21 		"/>
		<polyline fill="#9DC1EC" points="205.927,179.21 224.046,263.28 177.403,237.327 		"/>
		<polyline fill="#92B9EA" points="224.046,263.28 218.354,192.355 205.927,179.21 		"/>
		<polyline fill="#CEDDF0" points="224.046,263.28 218.56,309.139 205.498,293.207 		"/>
		<polyline fill="#C0D4EC" points="177.403,237.327 205.498,293.207 224.046,263.28 		"/>
		<polyline fill="#52678A" points="205.498,293.207 207.12,331.504 218.56,309.139 		"/>
		<polyline fill="#272430" points="205.498,293.207 197.278,305.373 207.12,331.504 		"/>
		<polyline fill="#8AA5C4" points="205.498,293.207 177.591,288.644 177.403,237.327 		"/>
		<polyline fill="#303A53" points="177.403,237.327 142.084,276.649 177.591,288.644 		"/>
		<polyline fill="#A6B2C0" points="177.403,237.327 142.084,276.649 148.183,200.89 		"/>
		<polyline fill="#BABFCC" points="128.75,271.965 142.084,276.649 148.183,200.89 		"/>
		<polyline fill="#0D080A" points="142.084,276.649 164.66,303.901 177.591,288.644 		"/>
		<polyline fill="#33374C" points="177.591,288.644 205.498,293.207 164.66,303.901 		"/>
		<polyline fill="#22191D" points="164.66,303.901 205.498,293.207 197.278,305.373 		"/>
		<polyline fill="#676772" points="197.278,305.373 164.66,303.901 145.087,315.541 		"/>
		<polyline fill="#7A6F70" points="145.087,315.541 197.278,305.373 173.599,328.575 		"/>
		<polyline fill="#9FB7D6" points="197.278,305.373 173.599,328.575 207.12,331.504 		"/>
		<polyline fill="#474854" points="142.084,276.649 130.026,283.05 164.66,303.901 		"/>
		<polyline fill="#3E4751" points="207.12,331.504 260.641,390.104 225.286,375.814 		"/>
		<polyline fill="#191216" points="183.846,381.117 203.997,376.564 219.36,401.943 183.846,381.117 		"/>
		<polyline fill="#35343B" points="219.36,401.943 239.05,389.272 203.997,376.564 		"/>
		<polyline fill="#221B1E" points="219.36,401.943 239.05,389.272 259.435,412.188 219.36,401.943 		"/>
		<polyline fill="#9C9888" points="259.435,412.188 265.546,402.366 239.05,389.272 		"/>
		<polyline fill="#B1B2A0" points="259.435,412.188 267.778,419.895 265.546,402.366 		"/>
		<polyline fill="#959183" points="259.435,412.188 268.868,430.051 267.778,419.895 		"/>
		<polyline fill="#51595F" points="265.546,402.366 260.641,390.104 225.286,375.814 		"/>
		<polyline fill="#58636E" points="187.708,350.06 198.825,348.341 225.286,375.814 		"/>
		<polyline fill="#535E6B" points="207.12,331.504 225.286,375.814 198.825,348.341 		"/>
		<polyline fill="#BCC2C9" points="207.12,331.504 198.825,348.341 173.599,328.575 		"/>
		<polyline fill="#838787" points="225.286,375.814 265.546,402.366 239.05,389.272 		"/>
		<polyline fill="#3D4049" points="225.286,375.814 187.708,350.06 203.997,376.564 		"/>
		<polyline fill="#29292F" points="203.997,376.564 171.814,360.967 187.708,350.06 		"/>
		<polyline fill="#10090F" points="171.814,360.967 183.846,381.117 152.957,352.489 		"/>
		<polyline fill="#19161B" points="171.814,360.967 183.846,381.117 203.997,376.564 		"/>
		<polyline fill="#33323A" points="171.814,360.967 164.815,346.122 187.708,350.06 		"/>
		<polyline fill="#1F1E27" points="152.957,352.489 164.815,346.122 171.814,360.967 		"/>
		<polyline fill="#0B0812" points="152.957,352.489 124.525,338.515 164.815,346.122 		"/>
		<polyline fill="#343C43" points="134.734,324.572 166.333,336.043 164.815,346.122 		"/>
		<polyline fill="#262835" points="164.815,346.122 166.333,336.043 187.708,350.06 		"/>
		<polyline fill="#3A3437" points="187.708,350.06 173.599,328.575 198.825,348.341 		"/>
		<polyline fill="#0F0F23" points="173.599,328.575 166.333,336.043 187.708,350.06 		"/>
		<polyline fill="#413C3D" points="166.333,336.043 145.087,315.541 173.599,328.575 		"/>
		<polyline fill="#CDDACD" points="166.333,336.043 145.087,315.541 134.734,324.572 		"/>
		<polyline fill="#B6B5A9" points="124.525,338.515 79.914,333.112 134.734,324.572 		"/>
		<polyline fill="#D1CDC6" points="134.734,324.572 83.027,313.526 79.914,333.112 		"/>
		<polyline fill="#E5E5D9" points="83.027,313.526 114.16,295.193 134.734,324.572 		"/>
		<path fill="#55565C" d="M114.16,295.193c0.69,0.645,20.574,29.378,20.574,29.378l10.353-9.03"/>
		<polyline fill="#211C1F" points="164.66,303.901 145.087,315.541 130.026,283.05 		"/>
		<polyline fill="#0F0B0E" points="145.087,315.541 114.16,295.193 130.026,283.05 		"/>
		<polyline fill="#332C2F" points="114.16,295.193 111.342,276.377 130.026,283.05 		"/>
		<polyline fill="#EBECED" points="83.027,313.526 111.342,276.377 114.16,295.193 		"/>
		<polyline fill="#C2C0BE" points="111.342,276.377 89.606,265.832 83.027,313.526 		"/>
		<polyline fill="#2A2123" points="111.342,276.377 128.75,271.965 130.026,283.05 		"/>
		<polyline fill="#41414A" points="130.026,283.05 128.75,271.965 142.084,276.649 		"/>
		<polyline fill="#170304" points="111.342,276.377 122.104,264.165 128.75,271.965 		"/>
		<polyline fill="#312733" points="90.913,247.068 111.686,252.882 99.313,240.098 		"/>
		<polyline fill="#211F25" points="99.313,240.098 117.723,243.379 111.686,252.882 		"/>
		<polyline fill="#302624" points="99.313,240.098 109.989,236.577 117.723,243.379 		"/>
		<polyline fill="#574F4E" points="89.169,231.037 99.313,240.098 109.989,236.577 		"/>
		<polyline fill="#524543" points="117.723,243.379 122.104,264.165 124.818,252.083 		"/>
		<polyline fill="#3E3134" points="122.104,264.165 124.818,252.083 128.75,271.965 		"/>
		<polyline fill="#030101" points="111.686,252.882 117.723,243.379 122.104,264.165 		"/>
		<polyline fill="#4E4850" points="90.913,247.068 111.686,252.882 100.073,257.773 90.913,247.068 		"/>
		<polyline fill="#322430" points="100.073,257.773 89.606,265.832 90.913,247.068 		"/>
		<polyline fill="#331B1E" points="89.606,265.832 104.111,266.848 100.073,257.773 		"/>
		<polyline fill="#020208" points="100.073,257.773 112.397,264.932 104.111,266.848 		"/>
		<polyline fill="#3FA9F5" points="112.397,264.932 111.686,252.882 100.073,257.773 		"/>
		<polyline fill="#443F44" points="111.686,252.882 112.397,264.932 122.104,264.165 111.686,252.882 		"/>
		<polyline fill="#270F0D" points="122.104,264.165 111.342,276.377 112.397,264.932 		"/>
		<polyline fill="#332323" points="104.111,266.848 112.397,264.932 111.342,276.377 		"/>
		<polyline fill="#280B0B" points="111.342,276.377 104.111,266.848 89.606,265.832 		"/>
		<path fill="#C1C2C4" d="M13.28,255.279c0.354,0.188,36.521,24.687,36.521,24.687l-29.853-0.232"/>
		<path fill="#4A4448" d="M59.646,207.164c0,0,29.523,23.68,29.523,23.873s1.743,16.031,1.743,16.031"/>
		<polyline fill="#635B62" points="89.169,231.037 99.313,240.098 90.913,247.068 		"/>
		<polyline fill="#2D2630" points="-129.36,341.769 -35.397,378.37 -67.129,321.873 		"/>
		<polyline fill="#D4D1CD" points="-101.375,302.197 -67.129,321.873 -56.899,278.864 		"/>
		<polyline fill="#BCBFC5" points="-83.982,260.505 -56.899,278.864 -17.068,246.174 		"/>
		<polyline fill="#313758" points="0.565,362.825 25.729,359.164 13.481,370.858 		"/>
		<polyline fill="#0B030A" points="-39.651,340.07 10.62,337.068 -14.604,353.472 		"/>
		<polyline fill="#2D2D35" points="-35.594,323.265 -39.651,340.07 0.916,322.845 		"/>
		<polyline fill="#6C6766" points="125.626,396.196 152.957,352.489 140.682,378.677 		"/>
		<polyline fill="#86848C" points="77.903,357.984 152.957,352.489 114.844,357.901 		"/>
		<polyline fill="#DADBD6" points="79.914,333.112 77.903,357.984 124.525,338.515 		"/>
		<polyline fill="#4D5B7D" points="134.734,324.572 124.525,338.515 164.815,346.122 		"/>
		<polyline fill="#49494A" points="203.997,376.564 225.286,375.814 239.05,389.272 		"/>
	</g>
</g>
<g id="Layer_1_2_">
	<g>
		<polyline fill="#B9B5B1" points="-219.436,468.972 -129.36,341.769 -116.138,455.155 -219.436,468.972 		"/>
		<polyline fill="#7E818D" points="-129.36,341.769 -169.775,355.864 -219.436,468.972 		"/>
		<polyline fill="#62636D" points="-219.436,468.972 -195.313,362.821 -169.775,355.864 		"/>
		<polyline fill="#C2C2BA" points="-116.138,455.155 -10.756,490.182 -129.36,341.769 		"/>
		<path fill="#DBD7D0" d="M-10.756,490.182c0,0,56.162-35.94,56.183-35.952l83.526,5.742L-10.756,490.182"/>
		<polyline fill="#767474" points="128.953,459.972 163.879,477.975 135.128,413.146 128.953,459.972 		"/>
		<polyline fill="#8D8B94" points="135.128,413.146 98.232,424.31 128.953,459.972 		"/>
		<polyline fill="#CDC9C4" points="45.427,454.23 98.232,424.31 128.953,459.972 		"/>
		<polyline fill="#777985" points="-129.36,341.769 -17.533,411.892 -10.756,490.182 		"/>
		<polyline fill="#B7B1AC" points="-10.756,490.182 -17.533,411.892 45.427,454.23 		"/>
		<polyline fill="#645E5E" points="-17.533,411.892 98.232,424.31 45.427,454.23 		"/>
		<polyline fill="#050004" points="-17.533,411.892 24.448,378.118 98.232,424.31 		"/>
		<polyline fill="#4C4B56" points="-17.533,411.892 -35.397,378.37 -129.36,341.769 		"/>
		<polyline fill="#2A2329" points="-35.397,378.37 24.448,378.118 -17.533,411.892 		"/>
		<polyline fill="#999FAF" points="-169.775,355.864 -128,302.957 -129.36,341.769 		"/>
		<polyline fill="#83878B" points="-128,302.957 -110.669,289.576 -101.375,302.197 		"/>
		<polyline fill="#9E9D9D" points="-128,302.957 -101.375,302.197 -129.36,341.769 		"/>
		<polyline fill="#B8B4B0" points="-101.375,302.197 -67.129,321.873 -129.36,341.769 		"/>
		<polyline fill="#B5AFB1" points="-110.669,289.576 -101.375,302.197 -56.899,278.864 		"/>
		<polyline fill="#A6AAB7" points="-110.669,289.576 -83.982,260.505 -56.899,278.864 		"/>
		<polyline fill="#6C7D9F" points="-83.982,260.505 -103.711,239.224 -110.669,289.576 		"/>
		<polyline fill="#7B92B6" points="-103.711,239.224 -132.566,274.654 -110.669,289.576 		"/>
		<polyline fill="#839ABD" points="-132.566,274.654 -144.488,248.312 -103.711,239.224 		"/>
		<polyline fill="#85A3CE" points="-103.711,239.224 -41.841,182.688 -83.982,260.505 		"/>
		<polyline fill="#9CA5B8" points="-41.841,182.688 -17.068,246.174 -83.982,260.505 		"/>
		<polyline fill="#C3BFBE" points="98.232,424.31 125.626,396.196 135.128,413.146 		"/>
		<polyline fill="#3E3532" points="135.128,413.146 125.626,396.196 140.682,378.677 		"/>
		<polyline fill="#4C443E" points="140.682,378.677 135.128,413.146 149.72,391.049 140.682,378.677 		"/>
		<polyline fill="#403330" points="140.682,378.677 183.846,381.117 149.72,391.049 		"/>
		<polyline fill="#55504C" points="140.682,378.677 152.957,352.489 183.846,381.117 		"/>
		<polyline fill="#BCBFC0" points="125.626,396.196 114.844,357.901 152.957,352.489 		"/>
		<polyline fill="#8A8A8F" points="125.626,396.196 114.844,357.901 98.232,424.31 		"/>
		<polyline fill="#ACAAA9" points="98.232,424.31 77.903,357.984 114.844,357.901 		"/>
		<polyline fill="#B8B7B1" points="77.903,357.984 124.525,338.515 152.957,352.489 		"/>
		<polyline fill="#C8C8C8" points="77.903,357.984 32.298,373.591 98.232,424.31 		"/>
		<polyline fill="#97A5B7" points="24.448,378.118 32.298,373.591 98.232,424.31 		"/>
		<polyline fill="#DADFD9" points="32.298,373.591 25.729,359.164 77.903,357.984 		"/>
		<polyline fill="#B1B1AF" points="77.903,357.984 79.914,333.112 25.729,359.164 		"/>
		<polyline fill="#E1DFDC" points="25.729,359.164 45.307,324.233 79.914,333.112 		"/>
		<polyline fill="#D2D1D0" points="79.914,333.112 83.027,313.526 45.307,324.233 		"/>
		<polyline fill="#BFBBB7" points="45.307,324.233 71.976,300.871 83.027,313.526 		"/>
		<polyline fill="#D7D4CA" points="83.027,313.526 89.606,265.832 71.976,300.871 		"/>
		<polyline fill="#D1CDCC" points="71.976,300.871 49.801,279.966 89.606,265.832 		"/>
		<polyline fill="#E1E0DB" points="89.606,265.832 21.737,227.939 49.801,279.966 		"/>
		<polyline fill="#9A99A4" points="49.801,279.966 19.948,279.733 71.976,300.871 		"/>
		<polyline fill="#E2E2E0" points="71.976,300.871 19.948,279.733 45.307,324.233 		"/>
		<polyline fill="#CECBC8" points="45.307,324.233 -19.675,295.889 19.948,279.733 		"/>
		<polyline fill="#B1B1BF" points="-19.675,295.889 0.916,322.845 45.307,324.233 		"/>
		<polyline fill="#C5C3C3" points="45.307,324.233 0.916,322.845 10.62,337.068 		"/>
		<polyline fill="#D7D5D1" points="10.321,352.463 10.62,337.068 45.307,324.233 		"/>
		<polyline fill="#CCCAC9" points="45.307,324.233 10.321,352.463 25.729,359.164 		"/>
		<polyline fill="#A4ABAF" points="10.321,352.463 0.565,362.825 25.729,359.164 		"/>
		<polyline fill="#4E5A78" points="25.729,359.164 13.481,370.858 32.298,373.591 		"/>
		<polyline fill="#0F1344" points="24.448,378.118 13.481,370.858 32.298,373.591 		"/>
		<polyline fill="#161117" points="24.448,378.118 13.481,370.858 -35.397,378.37 		"/>
		<polyline fill="#252129" points="13.481,370.858 0.565,362.825 -35.397,378.37 		"/>
		<polyline fill="#060411" points="0.565,362.825 -14.604,353.472 -35.397,378.37 		"/>
		<polyline fill="#0F0D2B" points="0.565,362.825 -14.604,353.472 10.321,352.463 		"/>
		<polyline fill="#5B6273" points="10.321,352.463 -14.604,353.472 10.62,337.068 		"/>
		<polyline fill="#9195A1" points="10.62,337.068 -39.651,340.07 0.916,322.845 		"/>
		<polyline fill="#1E161B" points="-14.604,353.472 -39.651,340.07 -35.397,378.37 		"/>
		<polyline fill="#29242B" points="-67.129,321.873 -35.397,378.37 -39.651,340.07 -67.129,321.873 		"/>
		<polyline fill="#261D25" points="-67.129,321.873 -39.651,340.07 0.916,322.845 		"/>
		<polyline fill="#646475" points="0.916,322.845 -35.594,323.265 -19.675,295.889 		"/>
		<polyline fill="#12080D" points="-19.675,295.889 -67.129,321.873 -35.594,323.265 		"/>
		<polyline fill="#322C30" points="-19.675,295.889 -17.068,246.174 19.948,279.733 		"/>
		<polyline fill="#4B464D" points="19.948,279.733 13.249,255.279 -17.068,246.174 		"/>
		<polyline fill="#2C2327" points="-17.068,246.174 -67.129,321.873 -19.675,295.889 		"/>
		<polyline fill="#A8A5A8" points="-56.899,278.864 -67.129,321.873 -17.068,246.174 		"/>
		<polyline fill="#D8D8D7" points="49.801,279.966 21.737,227.939 13.249,255.279 		"/>
		<path fill="#3D383A" d="M13.249,255.279c-0.386-0.366,8.487-27.34,8.487-27.34l-38.805,18.235"/>
		<polyline fill="#464145" points="-17.068,246.174 31.432,203.814 21.737,227.939 		"/>
		<polyline fill="#757F8E" points="31.432,203.814 59.646,207.164 21.737,227.939 		"/>
		<polyline fill="#FCFBF8" points="59.646,207.164 90.913,247.068 21.737,227.939 		"/>
		<polyline fill="#CFD0CA" points="21.737,227.939 90.913,247.068 89.606,265.832 		"/>
		<polyline fill="#6C7C9E" points="-17.068,246.174 -10.19,191.751 -41.841,182.688 		"/>
		<polyline fill="#88A6CF" points="-41.841,182.688 -26.737,179.259 -10.19,191.751 		"/>
		<polyline fill="#617CA8" points="-10.19,191.751 4.547,161.137 -26.737,179.259 		"/>
		<polyline fill="#211C20" points="-10.19,191.751 31.432,203.814 -17.068,246.174 		"/>
		<polyline fill="#262229" points="-10.19,191.751 31.432,203.814 4.547,161.137 		"/>
		<polyline fill="#33313A" points="4.547,161.137 29.361,159.375 31.432,203.814 		"/>
		<polyline fill="#262027" points="31.432,203.814 59.646,207.164 29.361,159.375 		"/>
		<polyline fill="#3A353A" points="59.646,207.164 57.299,187.206 29.361,159.375 		"/>
		<polyline fill="#BEC7CF" points="57.299,187.206 78.007,196.463 59.646,207.164 		"/>
		<polyline fill="#A9A8A8" points="59.646,207.164 89.169,231.037 78.007,196.463 		"/>
		<polyline fill="#B7BEC9" points="78.007,196.463 96.916,191.542 89.169,231.037 		"/>
		<polyline fill="#9E9EA6" points="89.169,231.037 109.989,236.577 96.916,191.542 		"/>
		<polyline fill="#7F8290" points="96.916,191.542 113.819,211.576 109.989,236.577 		"/>
		<polyline fill="#A2A2A6" points="109.989,236.577 113.819,211.576 117.723,243.379 		"/>
		<path fill="#FAFBF9" d="M113.819,211.576c0-0.547,13.987-57.839,13.987-57.839l-10.083,89.642"/>
		<polyline fill="#C9D3DD" points="127.806,153.737 101.56,140.707 113.819,211.576 		"/>
		<polyline fill="#F5F9FA" points="113.819,211.576 96.916,191.542 101.56,140.707 		"/>
		<polyline fill="#2E3C58" points="101.56,140.707 81.162,123.562 96.916,191.542 		"/>
		<polyline fill="#414A63" points="96.916,191.542 70.231,160.687 81.162,123.562 		"/>
		<polyline fill="#546B8F" points="81.162,123.562 55.339,131.07 70.231,160.687 		"/>
		<polyline fill="#8C9ECA" points="70.231,160.687 64.376,172.199 96.916,191.542 		"/>
		<polyline fill="#E6EBE5" points="96.916,191.542 78.007,196.463 64.376,172.199 		"/>
		<polyline fill="#C8CADD" points="64.376,172.199 57.299,187.206 78.007,196.463 		"/>
		<polyline fill="#2D2A2F" points="64.376,172.199 35.178,141.892 57.299,187.206 		"/>
		<polyline fill="#474952" points="57.299,187.206 35.178,141.892 29.361,159.375 		"/>
		<polyline fill="#38353C" points="29.361,159.375 24.704,131.496 35.178,141.892 		"/>
		<polyline fill="#353239" points="35.178,141.892 41.265,128.988 64.376,172.199 		"/>
		<polyline fill="#444852" points="64.376,172.199 55.339,131.07 41.265,128.988 		"/>
		<polyline fill="#343137" points="55.339,131.07 64.376,172.199 70.231,160.687 		"/>
		<polyline fill="#4E70A1" points="81.162,123.562 90.077,110.156 101.56,140.707 		"/>
		<polyline fill="#466693" points="101.56,140.707 105.18,111.463 90.077,110.156 		"/>
		<polyline fill="#709BD3" points="101.56,140.707 105.18,111.463 127.806,153.737 		"/>
		<polyline fill="#5683BB" points="127.806,153.737 142.827,115.735 105.18,111.463 		"/>
		<polyline fill="#425473" points="142.827,115.735 105.75,100.63 105.18,111.463 		"/>
		<polyline fill="#42608A" points="105.75,100.63 117.297,99.171 142.827,115.735 		"/>
		<polyline fill="#57749F" points="117.297,99.171 124.297,86.355 142.827,115.735 		"/>
		<polyline fill="#677598" points="124.297,86.355 151.2,86.583 142.827,115.735 		"/>
		<polyline fill="#6D97CC" points="142.827,115.735 173.726,169.079 127.806,153.737 		"/>
		<polyline fill="#567FBA" points="151.2,86.583 173.726,169.079 142.827,115.735 		"/>
		<polyline fill="#4E75A8" points="151.2,86.583 185.854,95.634 173.726,169.079 		"/>
		<polyline fill="#4D6A92" points="185.854,95.634 165.928,73.223 151.2,86.583 		"/>
		<polyline fill="#5B77AA" points="185.854,95.634 195.93,95.839 190.976,111.616 		"/>
		<polyline fill="#5E87BE" points="185.854,95.634 190.976,111.616 173.726,169.079 		"/>
		<polyline fill="#5A83B8" points="190.976,111.616 205.096,151.232 173.726,169.079 		"/>
		<polyline fill="#6997D1" points="205.096,151.232 205.927,179.21 173.726,169.079 		"/>
		<polyline fill="#779ED6" points="205.927,179.21 157.28,183.342 173.726,169.079 		"/>
		<polyline fill="#81A3CF" points="157.28,183.342 127.806,153.737 173.726,169.079 		"/>
		<polyline fill="#7897C8" points="127.806,153.737 148.183,200.89 157.28,183.342 		"/>
		<polyline fill="#CCD4DA" points="148.183,200.89 124.818,252.083 127.806,153.737 		"/>
		<polyline fill="#B6BCC9" points="127.806,153.737 117.723,243.379 124.818,252.083 		"/>
		<polyline fill="#A7A9B8" points="124.818,252.083 128.75,271.965 148.183,200.89 		"/>
		<polyline fill="#C7CEDA" points="148.183,200.89 177.403,237.327 157.28,183.342 		"/>
		<polyline fill="#7097CA" points="157.28,183.342 177.403,237.327 205.927,179.21 		"/>
		<polyline fill="#9DC1EC" points="205.927,179.21 224.046,263.28 177.403,237.327 		"/>
		<polyline fill="#92B9EA" points="224.046,263.28 218.354,192.355 205.927,179.21 		"/>
		<polyline fill="#CEDDF0" points="224.046,263.28 218.56,309.139 205.498,293.207 		"/>
		<polyline fill="#C0D4EC" points="177.403,237.327 205.498,293.207 224.046,263.28 		"/>
		<polyline fill="#52678A" points="205.498,293.207 207.12,331.504 218.56,309.139 		"/>
		<polyline fill="#272430" points="205.498,293.207 197.278,305.373 207.12,331.504 		"/>
		<polyline fill="#8AA5C4" points="205.498,293.207 177.591,288.644 177.403,237.327 		"/>
		<polyline fill="#303A53" points="177.403,237.327 142.084,276.649 177.591,288.644 		"/>
		<polyline fill="#A6B2C0" points="177.403,237.327 142.084,276.649 148.183,200.89 		"/>
		<polyline fill="#BABFCC" points="128.75,271.965 142.084,276.649 148.183,200.89 		"/>
		<polyline fill="#0D080A" points="142.084,276.649 164.66,303.901 177.591,288.644 		"/>
		<polyline fill="#33374C" points="177.591,288.644 205.498,293.207 164.66,303.901 		"/>
		<polyline fill="#22191D" points="164.66,303.901 205.498,293.207 197.278,305.373 		"/>
		<polyline fill="#676772" points="197.278,305.373 164.66,303.901 145.087,315.541 		"/>
		<polyline fill="#7A6F70" points="145.087,315.541 197.278,305.373 173.599,328.575 		"/>
		<polyline fill="#9FB7D6" points="197.278,305.373 173.599,328.575 207.12,331.504 		"/>
		<polyline fill="#474854" points="142.084,276.649 130.026,283.05 164.66,303.901 		"/>
		<polyline fill="#3E4751" points="207.12,331.504 260.641,390.104 225.286,375.814 		"/>
		<polyline fill="#191216" points="183.846,381.117 203.997,376.564 219.36,401.943 183.846,381.117 		"/>
		<polyline fill="#35343B" points="219.36,401.943 239.05,389.272 203.997,376.564 		"/>
		<polyline fill="#221B1E" points="219.36,401.943 239.05,389.272 259.435,412.188 219.36,401.943 		"/>
		<polyline fill="#9C9888" points="259.435,412.188 265.546,402.366 239.05,389.272 		"/>
		<polyline fill="#B1B2A0" points="259.435,412.188 267.778,419.895 265.546,402.366 		"/>
		<polyline fill="#959183" points="259.435,412.188 268.868,430.051 267.778,419.895 		"/>
		<polyline fill="#51595F" points="265.546,402.366 260.641,390.104 225.286,375.814 		"/>
		<polyline fill="#58636E" points="187.708,350.06 198.825,348.341 225.286,375.814 		"/>
		<polyline fill="#535E6B" points="207.12,331.504 225.286,375.814 198.825,348.341 		"/>
		<polyline fill="#BCC2C9" points="207.12,331.504 198.825,348.341 173.599,328.575 		"/>
		<polyline fill="#838787" points="225.286,375.814 265.546,402.366 239.05,389.272 		"/>
		<polyline fill="#3D4049" points="225.286,375.814 187.708,350.06 203.997,376.564 		"/>
		<polyline fill="#29292F" points="203.997,376.564 171.814,360.967 187.708,350.06 		"/>
		<polyline fill="#10090F" points="171.814,360.967 183.846,381.117 152.957,352.489 		"/>
		<polyline fill="#19161B" points="171.814,360.967 183.846,381.117 203.997,376.564 		"/>
		<polyline fill="#33323A" points="171.814,360.967 164.815,346.122 187.708,350.06 		"/>
		<polyline fill="#1F1E27" points="152.957,352.489 164.815,346.122 171.814,360.967 		"/>
		<polyline fill="#0B0812" points="152.957,352.489 124.525,338.515 164.815,346.122 		"/>
		<polyline fill="#343C43" points="134.734,324.572 166.333,336.043 164.815,346.122 		"/>
		<polyline fill="#262835" points="164.815,346.122 166.333,336.043 187.708,350.06 		"/>
		<polyline fill="#3A3437" points="187.708,350.06 173.599,328.575 198.825,348.341 		"/>
		<polyline fill="#0F0F23" points="173.599,328.575 166.333,336.043 187.708,350.06 		"/>
		<polyline fill="#413C3D" points="166.333,336.043 145.087,315.541 173.599,328.575 		"/>
		<polyline fill="#CDDACD" points="166.333,336.043 145.087,315.541 134.734,324.572 		"/>
		<polyline fill="#B6B5A9" points="124.525,338.515 79.914,333.112 134.734,324.572 		"/>
		<polyline fill="#D1CDC6" points="134.734,324.572 83.027,313.526 79.914,333.112 		"/>
		<polyline fill="#E5E5D9" points="83.027,313.526 114.16,295.193 134.734,324.572 		"/>
		<path fill="#55565C" d="M114.16,295.193c0.69,0.645,20.574,29.378,20.574,29.378l10.353-9.03"/>
		<polyline fill="#211C1F" points="164.66,303.901 145.087,315.541 130.026,283.05 		"/>
		<polyline fill="#0F0B0E" points="145.087,315.541 114.16,295.193 130.026,283.05 		"/>
		<polyline fill="#332C2F" points="114.16,295.193 111.342,276.377 130.026,283.05 		"/>
		<polyline fill="#EBECED" points="83.027,313.526 111.342,276.377 114.16,295.193 		"/>
		<polyline fill="#C2C0BE" points="111.342,276.377 89.606,265.832 83.027,313.526 		"/>
		<polyline fill="#2A2123" points="111.342,276.377 128.75,271.965 130.026,283.05 		"/>
		<polyline fill="#41414A" points="130.026,283.05 128.75,271.965 142.084,276.649 		"/>
		<polyline fill="#170304" points="111.342,276.377 122.104,264.165 128.75,271.965 		"/>
		<polyline fill="#312733" points="90.913,247.068 111.686,252.882 99.313,240.098 		"/>
		<polyline fill="#211F25" points="99.313,240.098 117.723,243.379 111.686,252.882 		"/>
		<polyline fill="#302624" points="99.313,240.098 109.989,236.577 117.723,243.379 		"/>
		<polyline fill="#574F4E" points="89.169,231.037 99.313,240.098 109.989,236.577 		"/>
		<polyline fill="#524543" points="117.723,243.379 122.104,264.165 124.818,252.083 		"/>
		<polyline fill="#3E3134" points="122.104,264.165 124.818,252.083 128.75,271.965 		"/>
		<polyline fill="#030101" points="111.686,252.882 117.723,243.379 122.104,264.165 		"/>
		<polyline fill="#4E4850" points="90.913,247.068 111.686,252.882 100.073,257.773 90.913,247.068 		"/>
		<polyline fill="#322430" points="100.073,257.773 89.606,265.832 90.913,247.068 		"/>
		<polyline fill="#331B1E" points="89.606,265.832 104.111,266.848 100.073,257.773 		"/>
		<polyline fill="#020208" points="100.073,257.773 112.397,264.932 104.111,266.848 		"/>
		<polyline fill="#3FA9F5" points="112.397,264.932 111.686,252.882 100.073,257.773 		"/>
		<polyline fill="#443F44" points="111.686,252.882 112.397,264.932 122.104,264.165 111.686,252.882 		"/>
		<polyline fill="#270F0D" points="122.104,264.165 111.342,276.377 112.397,264.932 		"/>
		<polyline fill="#332323" points="104.111,266.848 112.397,264.932 111.342,276.377 		"/>
		<polyline fill="#280B0B" points="111.342,276.377 104.111,266.848 89.606,265.832 		"/>
		<path fill="#C1C2C4" d="M13.28,255.279c0.354,0.188,36.521,24.687,36.521,24.687l-29.853-0.232"/>
		<path fill="#4A4448" d="M59.646,207.164c0,0,29.523,23.68,29.523,23.873s1.743,16.031,1.743,16.031"/>
		<polyline fill="#635B62" points="89.169,231.037 99.313,240.098 90.913,247.068 		"/>
		<polyline fill="#2D2630" points="-129.36,341.769 -35.397,378.37 -67.129,321.873 		"/>
		<polyline fill="#D4D1CD" points="-101.375,302.197 -67.129,321.873 -56.899,278.864 		"/>
		<polyline fill="#BCBFC5" points="-83.982,260.505 -56.899,278.864 -17.068,246.174 		"/>
		<polyline fill="#313758" points="0.565,362.825 25.729,359.164 13.481,370.858 		"/>
		<polyline fill="#0B030A" points="-39.651,340.07 10.62,337.068 -14.604,353.472 		"/>
		<polyline fill="#2D2D35" points="-35.594,323.265 -39.651,340.07 0.916,322.845 		"/>
		<polyline fill="#6C6766" points="125.626,396.196 152.957,352.489 140.682,378.677 		"/>
		<polyline fill="#86848C" points="77.903,357.984 152.957,352.489 114.844,357.901 		"/>
		<polyline fill="#DADBD6" points="79.914,333.112 77.903,357.984 124.525,338.515 		"/>
		<polyline fill="#4D5B7D" points="134.734,324.572 124.525,338.515 164.815,346.122 		"/>
		<polyline fill="#49494A" points="203.997,376.564 225.286,375.814 239.05,389.272 		"/>
	</g>
</g>
</svg>
